<?xml version="1.0" encoding="UTF-8"?>
<svg width="400" height="400" viewBox="0 0 400 400" xmlns="http://www.w3.org/2000/svg">
  <defs>
    <linearGradient id="grad" x1="0%" y1="0%" x2="100%" y2="100%">
      <stop offset="0%" stop-color="#0CBCCC"/>
      <stop offset="100%" stop-color="#0A1B37"/>
    </linearGradient>
  </defs>
  <rect width="400" height="400" rx="80" fill="url(#grad)"/>
  <path d="M120 280 L120 120 L170 120 L170 230 L210 230 L210 280 Z" fill="#FFFFFF"/>
  <path d="M230 120 L300 120 Q340 120 340 160 Q340 195 310 205 Q340 215 340 250 Q340 290 300 290 L230 290 ZM280 170 Q300 170 300 155 Q300 140 280 140 L260 140 L260 170 ZM285 260 Q305 260 305 240 Q305 220 285 220 L260 220 L260 260 Z" fill="#FFFFFF"/>
</svg>

